<?xml version="1.0" encoding="UTF-8" standalone="no"?>
<!-- Created with Inkscape (http://www.inkscape.org/) -->

<svg
   width="154.6938mm"
   height="26.549065mm"
   viewBox="0 0 154.69381 26.549065"
   version="1.1"
   id="svg1148"
   inkscape:version="1.2.2 (1:1.2.2+202212051552+b0a8486541)"
   sodipodi:docname="nav-logo.svg"
   xmlns:inkscape="http://www.inkscape.org/namespaces/inkscape"
   xmlns:sodipodi="http://sodipodi.sourceforge.net/DTD/sodipodi-0.dtd"
   xmlns="http://www.w3.org/2000/svg"
   xmlns:svg="http://www.w3.org/2000/svg">
  <sodipodi:namedview
     id="namedview1150"
     pagecolor="#ffffff"
     bordercolor="#999999"
     borderopacity="1"
     inkscape:showpageshadow="0"
     inkscape:pageopacity="0"
     inkscape:pagecheckerboard="0"
     inkscape:deskcolor="#d1d1d1"
     inkscape:document-units="mm"
     showgrid="false"
     inkscape:zoom="0.84096521"
     inkscape:cx="-60.644602"
     inkscape:cy="-47.564394"
     inkscape:window-width="1920"
     inkscape:window-height="995"
     inkscape:window-x="0"
     inkscape:window-y="0"
     inkscape:window-maximized="1"
     inkscape:current-layer="layer1"
     showguides="true">
    <sodipodi:guide
       position="107.91273,5.3505546"
       orientation="0,-1"
       id="guide393"
       inkscape:locked="false" />
  </sodipodi:namedview>
  <defs
     id="defs1145" />
  <g
     inkscape:label="Layer 1"
     inkscape:groupmode="layer"
     id="layer1"
     transform="translate(-38.905749,-102.41592)">
    <g
       id="g3983"
       transform="matrix(0.89329149,0,0,0.89329149,-264.81543,84.266642)">
      <path
         id="path17145"
         style="font-style:normal;font-weight:normal;font-size:15.3809px;line-height:1.25;font-family:sans-serif;letter-spacing:0px;word-spacing:0px;fill:#e3dbdb;fill-opacity:1;stroke:#f2c539;stroke-width:1.8902;stroke-dasharray:none;stroke-opacity:1"
         inkscape:transform-center-x="3.8105651"
         inkscape:transform-center-y="1.0339793"
         d="m 350.45843,22.212683 -9.51101,7.165808 v 2.496567 l 2.65717,1.963119 c -0.68092,1.400096 -1.06416,2.970809 -1.06416,4.62952 0,5.856907 4.76534,10.625003 10.62225,10.625003 5.85691,0 10.62498,-4.768096 10.62498,-10.625003 0,-1.659264 -0.3824,-3.230889 -1.06414,-4.631377 l 2.6544,-1.961262 v -2.496567 l -9.51101,-7.165808 v 1.341049 l 6.92214,7.026427 -1.29399,1.305044 c -1.94812,-2.459026 -4.9595,-4.039741 -8.33238,-4.039741 -3.37332,0 -6.38437,1.581108 -8.33149,4.040669 l -1.29583,-1.305972 6.92307,-7.026427 z" />
      <text
         xml:space="preserve"
         style="font-style:normal;font-weight:normal;font-size:27.4706px;line-height:1.25;font-family:sans-serif;letter-spacing:0px;word-spacing:0px;fill:#39383c;fill-opacity:1;stroke:none;stroke-width:0.46908"
         x="497.78012"
         y="24.265635"
         id="text17149"
         transform="scale(0.68303017,1.4640642)"
         inkscape:transform-center-x="3.8105651"
         inkscape:transform-center-y="1.0339793"><tspan
           sodipodi:role="line"
           id="tspan17147"
           style="font-style:normal;font-variant:normal;font-weight:normal;font-stretch:normal;font-size:27.4706px;font-family:Dhurjati;-inkscape-font-specification:'Dhurjati, Normal';font-variant-ligatures:normal;font-variant-caps:normal;font-variant-numeric:normal;font-variant-east-asian:normal;fill:#39383c;fill-opacity:1;stroke-width:0.46908"
           x="497.78012"
           y="24.265635">&lt;</tspan></text>
      <text
         xml:space="preserve"
         style="font-style:normal;font-weight:normal;font-size:27.4706px;line-height:1.25;font-family:sans-serif;letter-spacing:0px;word-spacing:0px;fill:#39383c;fill-opacity:1;stroke:none;stroke-width:0.46908"
         x="-536.32544"
         y="24.265635"
         id="text17153"
         transform="scale(-0.68303017,1.4640642)"
         inkscape:transform-center-x="-7.630339"
         inkscape:transform-center-y="-0.22364461"><tspan
           sodipodi:role="line"
           id="tspan17151"
           style="font-style:normal;font-variant:normal;font-weight:normal;font-stretch:normal;font-size:27.4706px;font-family:Dhurjati;-inkscape-font-specification:'Dhurjati, Normal';font-variant-ligatures:normal;font-variant-caps:normal;font-variant-numeric:normal;font-variant-east-asian:normal;fill:#39383c;fill-opacity:1;stroke-width:0.46908"
           x="-536.32544"
           y="24.265635">&lt;</tspan></text>
      <circle
         style="font-variation-settings:normal;fill:#f2c539;fill-opacity:1;stroke:#39383c;stroke-width:1.75864;stroke-linecap:butt;stroke-linejoin:miter;stroke-miterlimit:10;stroke-dasharray:none;stroke-dashoffset:0;stroke-opacity:1;paint-order:fill markers stroke;stop-color:#000000"
         id="circle17155"
         cx="353.16272"
         cy="38.468212"
         r="9.7444344" />
      <g
         id="g17167"
         transform="matrix(1.7729061,0,0,1.7729061,307.16936,5.3674967)">
        <path
           id="path17157"
           style="font-variation-settings:normal;opacity:1;fill:#ffffff;fill-opacity:1;stroke:#39383c;stroke-width:0.613;stroke-linecap:butt;stroke-linejoin:miter;stroke-miterlimit:10;stroke-dasharray:none;stroke-dashoffset:0;stroke-opacity:1;paint-order:fill markers stroke;stop-color:#000000;stop-opacity:1"
           d="m 25.941997,15.290015 a 4.1538109,5.0725507 0 0 0 -3.461613,2.272607 4.1538109,5.0725507 0 0 0 3.461613,2.272605 4.1538109,5.0725507 0 0 0 3.46225,-2.274168 4.1538109,5.0725507 0 0 0 -3.46225,-2.271044 z" />
        <text
           xml:space="preserve"
           style="font-style:normal;font-weight:normal;font-size:4.10058px;line-height:1.25;font-family:sans-serif;letter-spacing:0px;word-spacing:0px;fill:#39383c;fill-opacity:1;stroke:none;stroke-width:0.102514"
           x="16.42907"
           y="27.773418"
           id="text17161"
           transform="scale(1.4995175,0.66688118)"><tspan
             sodipodi:role="line"
             id="tspan17159"
             style="font-style:normal;font-variant:normal;font-weight:800;font-stretch:normal;font-family:Montserrat;-inkscape-font-specification:'Montserrat Ultra-Bold';fill:#39383c;fill-opacity:1;stroke-width:0.102514"
             x="16.42907"
             y="27.773418">/</tspan></text>
        <text
           xml:space="preserve"
           style="font-style:normal;font-weight:normal;font-size:6.11046px;line-height:1.25;font-family:sans-serif;letter-spacing:0px;word-spacing:0px;fill:#39383c;fill-opacity:1;stroke:none;stroke-width:0.152761"
           x="19.767"
           y="-24.431227"
           id="text17165"
           transform="matrix(0,1.00629,-0.99374931,0,0,0)"><tspan
             sodipodi:role="line"
             id="tspan17163"
             style="font-style:normal;font-variant:normal;font-weight:800;font-stretch:normal;font-family:Montserrat;-inkscape-font-specification:'Montserrat Ultra-Bold';fill:#39383c;fill-opacity:1;stroke-width:0.152761"
             x="19.767"
             y="-24.431227">{</tspan></text>
      </g>
    </g>
    <path
       d="m 85.666605,121.44158 c 0.305391,-0.30577 0.483439,-0.71219 0.483439,-1.14503 0,-0.86508 -0.76338,-1.62857 -1.628545,-1.62857 -0.432555,0 -0.83975,0.17861 -1.145087,0.48335 -0.96695,0.96699 -2.213823,1.42498 -3.460696,1.42498 -2.697298,0 -4.88567,-2.18837 -4.88567,-4.88562 0,-2.69735 2.188372,-4.8857 4.88567,-4.8857 1.246873,0 2.519178,0.4577 3.460696,1.42497 0.305391,0.33045 0.712496,0.48333 1.145087,0.48333 0.865183,0 1.628545,-0.73784 1.628545,-1.62856 0,-0.40737 -0.178066,-0.83945 -0.483439,-1.14512 -1.603112,-1.57768 -3.664248,-2.39196 -5.750835,-2.39196 -4.503998,0 -8.142814,3.63888 -8.142814,8.14285 0,4.50398 3.638816,8.14275 8.142814,8.14275 2.086587,0 4.147723,-0.78911 5.750835,-2.39196 z"
       style="font-size:2.67967px;line-height:0;font-family:'Geometry Soft Pro';-inkscape-font-specification:'Geometry Soft Pro';letter-spacing:0px;word-spacing:0px;fill:#f2c539;fill-opacity:1;stroke-width:0.216487"
       id="path17171" />
    <path
       d="m 86.837125,117.31936 c 0,3.58788 2.926319,6.51418 6.514233,6.51418 3.587914,0 6.514233,-2.9263 6.514233,-6.51418 0,-3.58798 -2.926319,-6.51428 -6.514233,-6.51428 -3.587914,0 -6.514233,2.9263 -6.514233,6.51428 z m 3.257108,0 c 0,-1.80672 1.450443,-3.25714 3.257125,-3.25714 1.806682,0 3.257125,1.45042 3.257125,3.25714 0,1.80661 -1.450443,3.25704 -3.257125,3.25704 -1.806682,0 -3.257125,-1.45043 -3.257125,-3.25704 z"
       style="font-size:2.67967px;line-height:0;font-family:'Geometry Soft Pro';-inkscape-font-specification:'Geometry Soft Pro';letter-spacing:0px;word-spacing:0px;fill:#f2c539;fill-opacity:1;stroke-width:0.216487"
       id="path17173" />
    <path
       d="m 107.39766,125.4621 c -0.83973,0 -1.65402,-0.30576 -2.31561,-0.942 -0.30539,-0.30576 -0.7125,-0.48335 -1.14509,-0.48335 -0.86518,0 -1.62856,0.76349 -1.62856,1.62858 0,0.43206 0.17824,0.83945 0.48346,1.14502 1.2723,1.27238 2.95175,1.90852 4.60576,1.90852 3.58792,0 6.51423,-2.9263 6.51423,-6.51428 v -9.77133 c 0,-0.89072 -0.73792,-1.62856 -1.62856,-1.62856 -0.89063,0 -1.62854,0.73784 -1.62854,1.62856 v 4.88571 c 0,1.80663 -1.45045,3.25705 -3.25713,3.25705 -1.80668,0 -3.25712,-1.45042 -3.25712,-3.25705 v -4.88571 c 0,-0.89072 -0.73793,-1.62856 -1.62855,-1.62856 -0.89063,0 -1.62856,0.73784 -1.62856,1.62856 v 4.88571 c 0,3.58789 2.92632,6.5142 6.51423,6.5142 1.14509,0 2.21382,-0.30579 3.15534,-0.81477 -0.35629,1.39953 -1.62856,2.44286 -3.15534,2.44286 z"
       style="font-size:2.67967px;line-height:0;font-family:'Geometry Soft Pro';-inkscape-font-specification:'Geometry Soft Pro';letter-spacing:0px;word-spacing:0px;fill:#f2c539;fill-opacity:1;stroke-width:0.216487"
       id="path17175" />
    <path
       d="m 119.20467,112.43364 c 0,-0.89073 -0.73793,-1.62856 -1.62857,-1.62856 -0.89063,0 -1.62856,0.73783 -1.62856,1.62856 v 9.55222 c 0,0.89073 0.73795,1.62857 1.62856,1.62857 0.89064,0 1.62857,-0.73784 1.62857,-1.62857 z m -3.4607,-4.27501 c 0,1.01786 0.8143,1.83216 1.83213,1.83216 1.01785,0 1.83214,-0.81381 1.83214,-1.83216 0,-1.01779 -0.81429,-1.83208 -1.83214,-1.83208 -1.01785,0 -1.83213,0.81476 -1.83213,1.83208 z"
       style="font-size:2.67967px;line-height:0;font-family:'Geometry Soft Pro';-inkscape-font-specification:'Geometry Soft Pro';letter-spacing:0px;word-spacing:0px;fill:#f2c539;fill-opacity:1;stroke-width:0.216487"
       id="path17177"
       sodipodi:nodetypes="ssssssssssss" />
    <g
       aria-label="Codes"
       id="g17189"
       style="font-size:0.911905px;line-height:0;letter-spacing:0px;word-spacing:0px;fill:#f2c539;fill-opacity:1;stroke-width:0.0227976"
       transform="matrix(9.4960373,0,0,9.4960373,-360.50324,-962.34629)">
      <path
         d="m 52.568234,114.10907 c 0.03216,-0.0322 0.05091,-0.075 0.05091,-0.12058 0,-0.0911 -0.08039,-0.1715 -0.171499,-0.1715 -0.04555,0 -0.08843,0.0188 -0.120585,0.0509 -0.101828,0.10183 -0.233131,0.15006 -0.364435,0.15006 -0.284045,0 -0.514497,-0.23045 -0.514497,-0.51449 0,-0.28405 0.230452,-0.5145 0.514497,-0.5145 0.131304,0 0.265287,0.0482 0.364435,0.15006 0.03216,0.0348 0.07503,0.0509 0.120585,0.0509 0.09111,0 0.171499,-0.0777 0.171499,-0.1715 0,-0.0429 -0.01876,-0.0884 -0.05091,-0.12059 -0.168819,-0.16614 -0.385872,-0.25189 -0.605605,-0.25189 -0.474302,0 -0.857495,0.3832 -0.857495,0.8575 0,0.4743 0.383193,0.85749 0.857495,0.85749 0.219733,0 0.436786,-0.0831 0.605605,-0.25189 z"
         style="font-size:2.67967px;font-family:'Geometry Soft Pro';-inkscape-font-specification:'Geometry Soft Pro';fill:#f2c539;fill-opacity:1"
         id="path17179" />
      <path
         d="m 52.691497,113.67497 c 0,0.37783 0.308162,0.68599 0.685995,0.68599 0.377834,0 0.685996,-0.30816 0.685996,-0.68599 0,-0.37784 -0.308162,-0.686 -0.685996,-0.686 -0.377833,0 -0.685995,0.30816 -0.685995,0.686 z m 0.342997,0 c 0,-0.19026 0.152741,-0.343 0.342998,-0.343 0.190257,0 0.342998,0.15274 0.342998,0.343 0,0.19025 -0.152741,0.34299 -0.342998,0.34299 -0.190257,0 -0.342998,-0.15274 -0.342998,-0.34299 z"
         style="font-size:2.67967px;font-family:'Geometry Soft Pro';-inkscape-font-specification:'Geometry Soft Pro';fill:#f2c539;fill-opacity:1"
         id="path17181" />
      <path
         d="m 55.521225,113.67497 v -1.029 c 0,-0.0938 -0.07771,-0.1715 -0.171499,-0.1715 -0.09379,0 -0.171499,0.0777 -0.171499,0.1715 v 0.43679 c -0.101827,-0.0589 -0.219733,-0.0938 -0.342998,-0.0938 -0.377833,0 -0.685995,0.30816 -0.685995,0.686 0,0.37783 0.308162,0.68599 0.685995,0.68599 0.123265,0 0.238491,-0.0322 0.337639,-0.0911 0.03216,0.067 0.09915,0.11255 0.176858,0.11255 0.107187,0 0.192936,-0.0858 0.192936,-0.19294 0,-0.0777 -0.04555,-0.1447 -0.112546,-0.17418 0.05627,-0.10182 0.09111,-0.21705 0.09111,-0.34031 z m -0.342998,0 c 0,0.19025 -0.152741,0.34299 -0.342998,0.34299 -0.190256,0 -0.342998,-0.15274 -0.342998,-0.34299 0,-0.19026 0.152742,-0.343 0.342998,-0.343 0.190257,0 0.342998,0.15274 0.342998,0.343 z"
         style="font-size:2.67967px;font-family:'Geometry Soft Pro';-inkscape-font-specification:'Geometry Soft Pro';fill:#f2c539;fill-opacity:1"
         id="path17183" />
      <path
         d="m 56.528778,114.36096 c 0.09379,0 0.171498,-0.0777 0.171498,-0.1715 0,-0.0938 -0.07771,-0.1715 -0.171498,-0.1715 h -0.171499 c -0.128624,0 -0.238491,-0.067 -0.297444,-0.17149 h 0.81194 c 0.09379,0 0.171499,-0.0777 0.171499,-0.1715 0,-0.37784 -0.308162,-0.686 -0.685995,-0.686 -0.377834,0 -0.685996,0.30816 -0.685996,0.686 0,0.37783 0.308162,0.68599 0.685996,0.68599 z m -0.171499,-1.02899 c 0.125944,0 0.23849,0.0697 0.297443,0.1715 h -0.594887 c 0.05895,-0.10183 0.16882,-0.1715 0.297444,-0.1715 z"
         style="font-size:2.67967px;font-family:'Geometry Soft Pro';-inkscape-font-specification:'Geometry Soft Pro';fill:#f2c539;fill-opacity:1"
         id="path17185" />
      <path
         d="m 57.321956,114.01796 c -0.09379,0 -0.171499,0.0777 -0.171499,0.1715 0,0.0938 0.07771,0.1715 0.171499,0.1715 h 0.600246 c 0.235811,0 0.428748,-0.19293 0.428748,-0.42875 0,-0.23581 -0.192937,-0.42874 -0.428748,-0.42874 h -0.342997 c -0.04823,0 -0.08575,-0.0375 -0.08575,-0.0857 0,-0.0482 0.03752,-0.0858 0.08575,-0.0858 h 0.514496 c 0.09379,0 0.171499,-0.0777 0.171499,-0.1715 0,-0.0938 -0.07771,-0.1715 -0.171499,-0.1715 h -0.514496 c -0.235811,0 -0.428748,0.19294 -0.428748,0.42875 0,0.23581 0.192937,0.42875 0.428748,0.42875 h 0.342997 c 0.04823,0 0.08575,0.0375 0.08575,0.0857 0,0.0482 -0.03752,0.0858 -0.08575,0.0858 z"
         style="font-size:2.67967px;font-family:'Geometry Soft Pro';-inkscape-font-specification:'Geometry Soft Pro';fill:#f2c539;fill-opacity:1"
         id="path17187" />
    </g>
  </g>
</svg>
