<?xml version="1.0" encoding="UTF-8" standalone="no"?>
<!-- Created with Inkscape (http://www.inkscape.org/) -->

<svg
   width="75.045525mm"
   height="44.032051mm"
   viewBox="0 0 75.045525 44.032051"
   version="1.1"
   id="svg1148"
   inkscape:version="1.2.2 (1:1.2.2+202212051552+b0a8486541)"
   sodipodi:docname="NavbarBrand.svg"
   xmlns:inkscape="http://www.inkscape.org/namespaces/inkscape"
   xmlns:sodipodi="http://sodipodi.sourceforge.net/DTD/sodipodi-0.dtd"
   xmlns="http://www.w3.org/2000/svg"
   xmlns:svg="http://www.w3.org/2000/svg">
  <sodipodi:namedview
     id="namedview1150"
     pagecolor="#ffffff"
     bordercolor="#999999"
     borderopacity="1"
     inkscape:showpageshadow="0"
     inkscape:pageopacity="0"
     inkscape:pagecheckerboard="0"
     inkscape:deskcolor="#d1d1d1"
     inkscape:document-units="mm"
     showgrid="false"
     inkscape:zoom="1.1893044"
     inkscape:cx="115.19339"
     inkscape:cy="96.695177"
     inkscape:window-width="1920"
     inkscape:window-height="995"
     inkscape:window-x="0"
     inkscape:window-y="0"
     inkscape:window-maximized="1"
     inkscape:current-layer="layer1" />
  <defs
     id="defs1145" />
  <g
     inkscape:label="Layer 1"
     inkscape:groupmode="layer"
     id="layer1"
     transform="translate(-71.772956,-100.35542)">
    <g
       id="g1127"
       inkscape:export-filename="Channel Art/NavbarBrand.png"
       inkscape:export-xdpi="17.305574"
       inkscape:export-ydpi="17.305574"
       transform="translate(-219.50454,80.038115)">
      <g
         id="g3983">
        <path
           id="path17145"
           style="font-style:normal;font-weight:normal;font-size:15.3809px;line-height:1.25;font-family:sans-serif;letter-spacing:0px;word-spacing:0px;fill:#e3dbdb;fill-opacity:1;stroke:#f2c539;stroke-width:1.8902;stroke-dasharray:none;stroke-opacity:1"
           inkscape:transform-center-x="3.8105651"
           inkscape:transform-center-y="1.0339793"
           d="m 350.45843,22.212683 -9.51101,7.165808 v 2.496567 l 2.65717,1.963119 c -0.68092,1.400096 -1.06416,2.970809 -1.06416,4.62952 0,5.856907 4.76534,10.625003 10.62225,10.625003 5.85691,0 10.62498,-4.768096 10.62498,-10.625003 0,-1.659264 -0.3824,-3.230889 -1.06414,-4.631377 l 2.6544,-1.961262 v -2.496567 l -9.51101,-7.165808 v 1.341049 l 6.92214,7.026427 -1.29399,1.305044 c -1.94812,-2.459026 -4.9595,-4.039741 -8.33238,-4.039741 -3.37332,0 -6.38437,1.581108 -8.33149,4.040669 l -1.29583,-1.305972 6.92307,-7.026427 z" />
        <text
           xml:space="preserve"
           style="font-style:normal;font-weight:normal;font-size:27.4706px;line-height:1.25;font-family:sans-serif;letter-spacing:0px;word-spacing:0px;fill:#39383c;fill-opacity:1;stroke:none;stroke-width:0.46908"
           x="497.78012"
           y="24.265635"
           id="text17149"
           transform="scale(0.68303017,1.4640642)"
           inkscape:transform-center-x="3.8105651"
           inkscape:transform-center-y="1.0339793"><tspan
             sodipodi:role="line"
             id="tspan17147"
             style="font-style:normal;font-variant:normal;font-weight:normal;font-stretch:normal;font-size:27.4706px;font-family:Dhurjati;-inkscape-font-specification:'Dhurjati, Normal';font-variant-ligatures:normal;font-variant-caps:normal;font-variant-numeric:normal;font-variant-east-asian:normal;fill:#39383c;fill-opacity:1;stroke-width:0.46908"
             x="497.78012"
             y="24.265635">&lt;</tspan></text>
        <text
           xml:space="preserve"
           style="font-style:normal;font-weight:normal;font-size:27.4706px;line-height:1.25;font-family:sans-serif;letter-spacing:0px;word-spacing:0px;fill:#39383c;fill-opacity:1;stroke:none;stroke-width:0.46908"
           x="-536.32544"
           y="24.265635"
           id="text17153"
           transform="scale(-0.68303017,1.4640642)"
           inkscape:transform-center-x="-7.630339"
           inkscape:transform-center-y="-0.22364461"><tspan
             sodipodi:role="line"
             id="tspan17151"
             style="font-style:normal;font-variant:normal;font-weight:normal;font-stretch:normal;font-size:27.4706px;font-family:Dhurjati;-inkscape-font-specification:'Dhurjati, Normal';font-variant-ligatures:normal;font-variant-caps:normal;font-variant-numeric:normal;font-variant-east-asian:normal;fill:#39383c;fill-opacity:1;stroke-width:0.46908"
             x="-536.32544"
             y="24.265635">&lt;</tspan></text>
        <circle
           style="font-variation-settings:normal;fill:#f2c539;fill-opacity:1;stroke:#39383c;stroke-width:1.75864;stroke-linecap:butt;stroke-linejoin:miter;stroke-miterlimit:10;stroke-dasharray:none;stroke-dashoffset:0;stroke-opacity:1;paint-order:fill markers stroke;stop-color:#000000"
           id="circle17155"
           cx="353.16272"
           cy="38.468212"
           r="9.7444344" />
        <g
           id="g17167"
           transform="matrix(1.7729061,0,0,1.7729061,307.16936,5.3674967)">
          <path
             id="path17157"
             style="font-variation-settings:normal;opacity:1;fill:#ffffff;fill-opacity:1;stroke:#39383c;stroke-width:0.613;stroke-linecap:butt;stroke-linejoin:miter;stroke-miterlimit:10;stroke-dasharray:none;stroke-dashoffset:0;stroke-opacity:1;paint-order:fill markers stroke;stop-color:#000000;stop-opacity:1"
             d="m 25.941997,15.290015 a 4.1538109,5.0725507 0 0 0 -3.461613,2.272607 4.1538109,5.0725507 0 0 0 3.461613,2.272605 4.1538109,5.0725507 0 0 0 3.46225,-2.274168 4.1538109,5.0725507 0 0 0 -3.46225,-2.271044 z" />
          <text
             xml:space="preserve"
             style="font-style:normal;font-weight:normal;font-size:4.10058px;line-height:1.25;font-family:sans-serif;letter-spacing:0px;word-spacing:0px;fill:#39383c;fill-opacity:1;stroke:none;stroke-width:0.102514"
             x="16.42907"
             y="27.773418"
             id="text17161"
             transform="scale(1.4995175,0.66688118)"><tspan
               sodipodi:role="line"
               id="tspan17159"
               style="font-style:normal;font-variant:normal;font-weight:800;font-stretch:normal;font-family:Montserrat;-inkscape-font-specification:'Montserrat Ultra-Bold';fill:#39383c;fill-opacity:1;stroke-width:0.102514"
               x="16.42907"
               y="27.773418">/</tspan></text>
          <text
             xml:space="preserve"
             style="font-style:normal;font-weight:normal;font-size:6.11046px;line-height:1.25;font-family:sans-serif;letter-spacing:0px;word-spacing:0px;fill:#39383c;fill-opacity:1;stroke:none;stroke-width:0.152761"
             x="19.767"
             y="-24.431227"
             id="text17165"
             transform="matrix(0,1.00629,-0.99374931,0,0,0)"><tspan
               sodipodi:role="line"
               id="tspan17163"
               style="font-style:normal;font-variant:normal;font-weight:800;font-stretch:normal;font-family:Montserrat;-inkscape-font-specification:'Montserrat Ultra-Bold';fill:#39383c;fill-opacity:1;stroke-width:0.152761"
               x="19.767"
               y="-24.431227">{</tspan></text>
        </g>
      </g>
      <g
         id="g17191"
         transform="matrix(1.786018,0,0,1.786018,-301.56496,-511.69288)"
         style="fill:#f2c539;fill-opacity:1">
        <path
           d="m 339.71444,309.68128 c 0.17099,-0.1712 0.27068,-0.39876 0.27068,-0.64111 0,-0.48436 -0.42742,-0.91184 -0.91183,-0.91184 -0.24219,0 -0.47018,0.1 -0.64114,0.27063 -0.5414,0.54142 -1.23953,0.79785 -1.93766,0.79785 -1.51023,0 -2.73551,-1.22528 -2.73551,-2.73548 0,-1.51026 1.22528,-2.73553 2.73551,-2.73553 0.69813,0 1.4105,0.25627 1.93766,0.79785 0.17099,0.18502 0.39893,0.27062 0.64114,0.27062 0.48442,0 0.91183,-0.41312 0.91183,-0.91184 0,-0.22809 -0.0997,-0.47001 -0.27068,-0.64116 -0.89759,-0.88335 -2.05163,-1.33927 -3.21992,-1.33927 -2.52181,0 -4.5592,2.03743 -4.5592,4.55922 0,2.5218 2.03739,4.55917 4.5592,4.55917 1.16829,0 2.32233,-0.44183 3.21992,-1.33927 z"
           style="font-size:2.67967px;line-height:0;font-family:'Geometry Soft Pro';-inkscape-font-specification:'Geometry Soft Pro';letter-spacing:0px;word-spacing:0px;fill:#f2c539;fill-opacity:1;stroke-width:0.121212"
           id="path17171" />
        <path
           d="m 340.36982,307.37323 c 0,2.00887 1.63846,3.64732 3.64735,3.64732 2.00889,0 3.64735,-1.63845 3.64735,-3.64732 0,-2.00893 -1.63846,-3.64738 -3.64735,-3.64738 -2.00889,0 -3.64735,1.63845 -3.64735,3.64738 z m 1.82367,0 c 0,-1.01159 0.81211,-1.82369 1.82368,-1.82369 1.01157,0 1.82368,0.8121 1.82368,1.82369 0,1.01153 -0.81211,1.82363 -1.82368,1.82363 -1.01157,0 -1.82368,-0.8121 -1.82368,-1.82363 z"
           style="font-size:2.67967px;line-height:0;font-family:'Geometry Soft Pro';-inkscape-font-specification:'Geometry Soft Pro';letter-spacing:0px;word-spacing:0px;fill:#f2c539;fill-opacity:1;stroke-width:0.121212"
           id="path17173" />
        <path
           d="m 351.88176,311.93239 c -0.47017,0 -0.92609,-0.1712 -1.29652,-0.52743 -0.17099,-0.1712 -0.39893,-0.27063 -0.64114,-0.27063 -0.48442,0 -0.91184,0.42748 -0.91184,0.91185 0,0.24191 0.0998,0.47001 0.27069,0.6411 0.71237,0.71241 1.6527,1.06859 2.57879,1.06859 2.00889,0 3.64735,-1.63845 3.64735,-3.64738 v -5.47101 c 0,-0.49872 -0.41317,-0.91184 -0.91184,-0.91184 -0.49867,0 -0.91183,0.41312 -0.91183,0.91184 v 2.73553 c 0,1.01154 -0.81211,1.82364 -1.82368,1.82364 -1.01157,0 -1.82368,-0.8121 -1.82368,-1.82364 v -2.73553 c 0,-0.49872 -0.41317,-0.91184 -0.91183,-0.91184 -0.49867,0 -0.91184,0.41312 -0.91184,0.91184 v 2.73553 c 0,2.00888 1.63846,3.64733 3.64735,3.64733 0.64114,0 1.23953,-0.17121 1.76669,-0.45619 -0.19949,0.7836 -0.91184,1.36777 -1.76669,1.36777 z"
           style="font-size:2.67967px;line-height:0;font-family:'Geometry Soft Pro';-inkscape-font-specification:'Geometry Soft Pro';letter-spacing:0px;word-spacing:0px;fill:#f2c539;fill-opacity:1;stroke-width:0.121212"
           id="path17175" />
        <path
           d="m 358.49256,304.63769 c 0,-0.49872 -0.41317,-0.91184 -0.91184,-0.91184 -0.49867,0 -0.91184,0.41312 -0.91184,0.91184 v 8.28455 c 0,0.49872 0.41318,0.91184 0.91184,0.91184 0.49867,0 0.91184,-0.41312 0.91184,-0.91184 z m -1.93766,-2.3936 c 0,0.56991 0.45593,1.02584 1.02582,1.02584 0.5699,0 1.02582,-0.45566 1.02582,-1.02584 0,-0.56986 -0.45592,-1.02579 -1.02582,-1.02579 -0.5699,0 -1.02582,0.45619 -1.02582,1.02579 z"
           style="font-size:2.67967px;line-height:0;font-family:'Geometry Soft Pro';-inkscape-font-specification:'Geometry Soft Pro';letter-spacing:0px;word-spacing:0px;fill:#f2c539;fill-opacity:1;stroke-width:0.121212"
           id="path17177"
           sodipodi:nodetypes="ssssssssssss" />
        <g
           aria-label="Codes"
           id="g17189"
           style="font-size:0.911905px;line-height:0;letter-spacing:0px;word-spacing:0px;fill:#f2c539;fill-opacity:1;stroke-width:0.0227976"
           transform="matrix(5.3168766,0,0,5.3168766,63.293063,-285.62831)">
          <path
             d="m 52.568234,114.10907 c 0.03216,-0.0322 0.05091,-0.075 0.05091,-0.12058 0,-0.0911 -0.08039,-0.1715 -0.171499,-0.1715 -0.04555,0 -0.08843,0.0188 -0.120585,0.0509 -0.101828,0.10183 -0.233131,0.15006 -0.364435,0.15006 -0.284045,0 -0.514497,-0.23045 -0.514497,-0.51449 0,-0.28405 0.230452,-0.5145 0.514497,-0.5145 0.131304,0 0.265287,0.0482 0.364435,0.15006 0.03216,0.0348 0.07503,0.0509 0.120585,0.0509 0.09111,0 0.171499,-0.0777 0.171499,-0.1715 0,-0.0429 -0.01876,-0.0884 -0.05091,-0.12059 -0.168819,-0.16614 -0.385872,-0.25189 -0.605605,-0.25189 -0.474302,0 -0.857495,0.3832 -0.857495,0.8575 0,0.4743 0.383193,0.85749 0.857495,0.85749 0.219733,0 0.436786,-0.0831 0.605605,-0.25189 z"
             style="font-size:2.67967px;font-family:'Geometry Soft Pro';-inkscape-font-specification:'Geometry Soft Pro';fill:#f2c539;fill-opacity:1"
             id="path17179" />
          <path
             d="m 52.691497,113.67497 c 0,0.37783 0.308162,0.68599 0.685995,0.68599 0.377834,0 0.685996,-0.30816 0.685996,-0.68599 0,-0.37784 -0.308162,-0.686 -0.685996,-0.686 -0.377833,0 -0.685995,0.30816 -0.685995,0.686 z m 0.342997,0 c 0,-0.19026 0.152741,-0.343 0.342998,-0.343 0.190257,0 0.342998,0.15274 0.342998,0.343 0,0.19025 -0.152741,0.34299 -0.342998,0.34299 -0.190257,0 -0.342998,-0.15274 -0.342998,-0.34299 z"
             style="font-size:2.67967px;font-family:'Geometry Soft Pro';-inkscape-font-specification:'Geometry Soft Pro';fill:#f2c539;fill-opacity:1"
             id="path17181" />
          <path
             d="m 55.521225,113.67497 v -1.029 c 0,-0.0938 -0.07771,-0.1715 -0.171499,-0.1715 -0.09379,0 -0.171499,0.0777 -0.171499,0.1715 v 0.43679 c -0.101827,-0.0589 -0.219733,-0.0938 -0.342998,-0.0938 -0.377833,0 -0.685995,0.30816 -0.685995,0.686 0,0.37783 0.308162,0.68599 0.685995,0.68599 0.123265,0 0.238491,-0.0322 0.337639,-0.0911 0.03216,0.067 0.09915,0.11255 0.176858,0.11255 0.107187,0 0.192936,-0.0858 0.192936,-0.19294 0,-0.0777 -0.04555,-0.1447 -0.112546,-0.17418 0.05627,-0.10182 0.09111,-0.21705 0.09111,-0.34031 z m -0.342998,0 c 0,0.19025 -0.152741,0.34299 -0.342998,0.34299 -0.190256,0 -0.342998,-0.15274 -0.342998,-0.34299 0,-0.19026 0.152742,-0.343 0.342998,-0.343 0.190257,0 0.342998,0.15274 0.342998,0.343 z"
             style="font-size:2.67967px;font-family:'Geometry Soft Pro';-inkscape-font-specification:'Geometry Soft Pro';fill:#f2c539;fill-opacity:1"
             id="path17183" />
          <path
             d="m 56.528778,114.36096 c 0.09379,0 0.171498,-0.0777 0.171498,-0.1715 0,-0.0938 -0.07771,-0.1715 -0.171498,-0.1715 h -0.171499 c -0.128624,0 -0.238491,-0.067 -0.297444,-0.17149 h 0.81194 c 0.09379,0 0.171499,-0.0777 0.171499,-0.1715 0,-0.37784 -0.308162,-0.686 -0.685995,-0.686 -0.377834,0 -0.685996,0.30816 -0.685996,0.686 0,0.37783 0.308162,0.68599 0.685996,0.68599 z m -0.171499,-1.02899 c 0.125944,0 0.23849,0.0697 0.297443,0.1715 h -0.594887 c 0.05895,-0.10183 0.16882,-0.1715 0.297444,-0.1715 z"
             style="font-size:2.67967px;font-family:'Geometry Soft Pro';-inkscape-font-specification:'Geometry Soft Pro';fill:#f2c539;fill-opacity:1"
             id="path17185" />
          <path
             d="m 57.321956,114.01796 c -0.09379,0 -0.171499,0.0777 -0.171499,0.1715 0,0.0938 0.07771,0.1715 0.171499,0.1715 h 0.600246 c 0.235811,0 0.428748,-0.19293 0.428748,-0.42875 0,-0.23581 -0.192937,-0.42874 -0.428748,-0.42874 h -0.342997 c -0.04823,0 -0.08575,-0.0375 -0.08575,-0.0857 0,-0.0482 0.03752,-0.0858 0.08575,-0.0858 h 0.514496 c 0.09379,0 0.171499,-0.0777 0.171499,-0.1715 0,-0.0938 -0.07771,-0.1715 -0.171499,-0.1715 h -0.514496 c -0.235811,0 -0.428748,0.19294 -0.428748,0.42875 0,0.23581 0.192937,0.42875 0.428748,0.42875 h 0.342997 c 0.04823,0 0.08575,0.0375 0.08575,0.0857 0,0.0482 -0.03752,0.0858 -0.08575,0.0858 z"
             style="font-size:2.67967px;font-family:'Geometry Soft Pro';-inkscape-font-specification:'Geometry Soft Pro';fill:#f2c539;fill-opacity:1"
             id="path17187" />
        </g>
      </g>
    </g>
  </g>
</svg>
