<?xml version="1.0" encoding="UTF-8" standalone="no"?>
<!-- Created with Inkscape (http://www.inkscape.org/) -->

<svg
   width="75.045525mm"
   height="44.032051mm"
   viewBox="0 0 75.045525 44.032051"
   version="1.1"
   id="svg1148"
   inkscape:version="1.2.2 (1:1.2.2+202212051552+b0a8486541)"
   sodipodi:docname="NavbarBrand.svg"
   xmlns:inkscape="http://www.inkscape.org/namespaces/inkscape"
   xmlns:sodipodi="http://sodipodi.sourceforge.net/DTD/sodipodi-0.dtd"
   xmlns="http://www.w3.org/2000/svg"
   xmlns:svg="http://www.w3.org/2000/svg">
  <sodipodi:namedview
     id="namedview1150"
     pagecolor="#ffffff"
     bordercolor="#999999"
     borderopacity="1"
     inkscape:showpageshadow="0"
     inkscape:pageopacity="0"
     inkscape:pagecheckerboard="0"
     inkscape:deskcolor="#d1d1d1"
     inkscape:document-units="mm"
     showgrid="false"
     inkscape:zoom="2.3786088"
     inkscape:cx="194.6516"
     inkscape:cy="68.527452"
     inkscape:window-width="1920"
     inkscape:window-height="995"
     inkscape:window-x="0"
     inkscape:window-y="0"
     inkscape:window-maximized="1"
     inkscape:current-layer="layer1" />
  <defs
     id="defs1145" />
  <g
     inkscape:label="Layer 1"
     inkscape:groupmode="layer"
     id="layer1"
     transform="translate(-71.772956,-100.35542)">
    <path
       id="path17145"
       style="font-style:normal;font-weight:normal;font-size:15.3809px;line-height:1.25;font-family:sans-serif;letter-spacing:0px;word-spacing:0px;fill:#e3dbdb;fill-opacity:1;stroke:#f2c539;stroke-width:1.8902;stroke-dasharray:none;stroke-opacity:1"
       inkscape:transform-center-x="3.8105651"
       inkscape:transform-center-y="1.0339793"
       d="m 130.95389,102.2508 -9.51101,7.16581 v 2.49656 l 2.65717,1.96312 c -0.68092,1.4001 -1.06416,2.97081 -1.06416,4.62952 0,5.85691 4.76534,10.625 10.62225,10.625 5.85691,0 10.62498,-4.76809 10.62498,-10.625 0,-1.65926 -0.3824,-3.23089 -1.06414,-4.63137 l 2.6544,-1.96127 v -2.49656 l -9.51101,-7.16581 v 1.34105 l 6.92214,7.02642 -1.29399,1.30505 c -1.94812,-2.45903 -4.9595,-4.03974 -8.33238,-4.03974 -3.37332,0 -6.38437,1.5811 -8.33149,4.04067 l -1.29583,-1.30598 6.92307,-7.02642 z" />
    <g
       aria-label="&lt;"
       transform="scale(0.68303016,1.4640642)"
       id="text17149"
       style="font-size:27.4706px;line-height:1.25;letter-spacing:0px;word-spacing:0px;fill:#39383c;stroke-width:0.46908"
       inkscape:transform-center-x="3.8105651"
       inkscape:transform-center-y="1.0339793">
      <path
         d="m 177.80071,76.439625 v -1.705071 l 13.92475,-4.894188 v 0.915687 l -10.1357,4.799461 10.1357,4.767886 v 0.915686 l -13.92475,-4.799461 z"
         style="font-family:Dhurjati;-inkscape-font-specification:'Dhurjati, Normal'"
         id="path470" />
    </g>
    <g
       aria-label="&lt;"
       transform="scale(-0.68303016,1.4640642)"
       id="text17153"
       style="font-size:27.4706px;line-height:1.25;letter-spacing:0px;word-spacing:0px;fill:#39383c;stroke-width:0.46908"
       inkscape:transform-center-x="-7.630339"
       inkscape:transform-center-y="-0.22364461">
      <path
         d="m -213.56739,76.439625 v -1.705071 l 13.92475,-4.894188 v 0.915687 l -10.1357,4.799461 10.1357,4.767886 v 0.915686 l -13.92475,-4.799461 z"
         style="font-family:Dhurjati;-inkscape-font-specification:'Dhurjati, Normal'"
         id="path473" />
    </g>
    <circle
       style="font-variation-settings:normal;fill:#f2c539;fill-opacity:1;stroke:#39383c;stroke-width:1.75864;stroke-linecap:butt;stroke-linejoin:miter;stroke-miterlimit:10;stroke-dasharray:none;stroke-dashoffset:0;stroke-opacity:1;paint-order:fill markers stroke;stop-color:#000000"
       id="circle17155"
       cx="133.65817"
       cy="118.50632"
       r="9.7444344" />
    <path
       id="path17157"
       style="font-variation-settings:normal;fill:#ffffff;fill-opacity:1;stroke:#39383c;stroke-width:1.08679;stroke-linecap:butt;stroke-linejoin:miter;stroke-miterlimit:10;stroke-dasharray:none;stroke-dashoffset:0;stroke-opacity:1;paint-order:fill markers stroke;stop-color:#000000"
       d="m 133.65754,112.51337 a 7.3643167,8.9931561 0 0 0 -6.13711,4.02912 7.3643167,8.9931561 0 0 0 6.13711,4.02912 7.3643167,8.9931561 0 0 0 6.13825,-4.03189 7.3643167,8.9931561 0 0 0 -6.13825,-4.02635 z" />
    <path
       d="m 130.93821,118.72743 3.59747,-4.56699 h 1.84233 l -3.59746,4.56699 z"
       style="font-weight:800;font-size:7.26994px;line-height:1.25;font-family:Montserrat;-inkscape-font-specification:'Montserrat Ultra-Bold';letter-spacing:0px;word-spacing:0px;fill:#39383c;stroke-width:0.181748"
       id="path476" />
    <g
       aria-label="{"
       transform="matrix(0,1.00629,-0.9937493,0,0,0)"
       id="text17165"
       style="font-size:10.8333px;line-height:1.25;letter-spacing:0px;word-spacing:0px;fill:#39383c;stroke-width:0.270831">
      <path
         d="m 123.55679,-129.42884 q -1.1375,0 -1.71166,-0.5525 -0.57417,-0.5525 -0.57417,-1.56 v -1.67916 q 0,-0.24916 -0.13,-0.36833 -0.13,-0.11917 -0.33583,-0.11917 h -0.36833 v -1.58166 h 0.36833 q 0.20583,0 0.33583,-0.11916 0.13,-0.13 0.13,-0.36834 v -1.67916 q 0,-1.00749 0.57417,-1.55999 0.57416,-0.5525 1.71166,-0.5525 h 0.70416 v 1.57083 h -0.15166 q -0.37917,0 -0.585,0.20583 -0.195,0.195 -0.195,0.57417 v 1.38666 q 0,0.54166 -0.15167,0.845 -0.15166,0.29249 -0.47666,0.42249 -0.31417,0.13 -0.82333,0.17334 v -0.21667 q 0.50916,0.0433 0.82333,0.17333 0.325,0.13 0.47666,0.43334 0.15167,0.29249 0.15167,0.83416 v 1.38666 q 0,0.37917 0.195,0.57417 0.20583,0.20583 0.585,0.20583 h 0.15166 v 1.57083 z"
         style="font-weight:800;font-family:Montserrat;-inkscape-font-specification:'Montserrat Ultra-Bold'"
         id="path480" />
    </g>
    <path
       d="m 85.666605,121.44158 c 0.305391,-0.30577 0.483439,-0.71219 0.483439,-1.14503 0,-0.86508 -0.76338,-1.62857 -1.628545,-1.62857 -0.432555,0 -0.83975,0.17861 -1.145087,0.48335 -0.96695,0.96699 -2.213823,1.42498 -3.460696,1.42498 -2.697298,0 -4.88567,-2.18837 -4.88567,-4.88562 0,-2.69735 2.188372,-4.8857 4.88567,-4.8857 1.246873,0 2.519178,0.4577 3.460696,1.42497 0.305391,0.33045 0.712496,0.48333 1.145087,0.48333 0.865183,0 1.628545,-0.73784 1.628545,-1.62856 0,-0.40737 -0.178066,-0.83945 -0.483439,-1.14512 -1.603112,-1.57768 -3.664248,-2.39196 -5.750835,-2.39196 -4.503998,0 -8.142814,3.63888 -8.142814,8.14285 0,4.50398 3.638816,8.14275 8.142814,8.14275 2.086587,0 4.147723,-0.78911 5.750835,-2.39196 z"
       style="font-size:2.67967px;line-height:0;font-family:'Geometry Soft Pro';-inkscape-font-specification:'Geometry Soft Pro';letter-spacing:0px;word-spacing:0px;fill:#f2c539;fill-opacity:1;stroke-width:0.216487"
       id="path17171" />
    <path
       d="m 86.837125,117.31936 c 0,3.58788 2.926319,6.51418 6.514233,6.51418 3.587914,0 6.514233,-2.9263 6.514233,-6.51418 0,-3.58798 -2.926319,-6.51428 -6.514233,-6.51428 -3.587914,0 -6.514233,2.9263 -6.514233,6.51428 z m 3.257108,0 c 0,-1.80672 1.450443,-3.25714 3.257125,-3.25714 1.806682,0 3.257125,1.45042 3.257125,3.25714 0,1.80661 -1.450443,3.25704 -3.257125,3.25704 -1.806682,0 -3.257125,-1.45043 -3.257125,-3.25704 z"
       style="font-size:2.67967px;line-height:0;font-family:'Geometry Soft Pro';-inkscape-font-specification:'Geometry Soft Pro';letter-spacing:0px;word-spacing:0px;fill:#f2c539;fill-opacity:1;stroke-width:0.216487"
       id="path17173" />
    <path
       d="m 107.39766,125.4621 c -0.83973,0 -1.65402,-0.30576 -2.31561,-0.942 -0.30539,-0.30576 -0.7125,-0.48335 -1.14509,-0.48335 -0.86518,0 -1.62856,0.76349 -1.62856,1.62858 0,0.43206 0.17824,0.83945 0.48346,1.14502 1.2723,1.27238 2.95175,1.90852 4.60576,1.90852 3.58792,0 6.51423,-2.9263 6.51423,-6.51428 v -9.77133 c 0,-0.89072 -0.73792,-1.62856 -1.62856,-1.62856 -0.89063,0 -1.62854,0.73784 -1.62854,1.62856 v 4.88571 c 0,1.80663 -1.45045,3.25705 -3.25713,3.25705 -1.80668,0 -3.25712,-1.45042 -3.25712,-3.25705 v -4.88571 c 0,-0.89072 -0.73793,-1.62856 -1.62855,-1.62856 -0.89063,0 -1.62856,0.73784 -1.62856,1.62856 v 4.88571 c 0,3.58789 2.92632,6.5142 6.51423,6.5142 1.14509,0 2.21382,-0.30579 3.15534,-0.81477 -0.35629,1.39953 -1.62856,2.44286 -3.15534,2.44286 z"
       style="font-size:2.67967px;line-height:0;font-family:'Geometry Soft Pro';-inkscape-font-specification:'Geometry Soft Pro';letter-spacing:0px;word-spacing:0px;fill:#f2c539;fill-opacity:1;stroke-width:0.216487"
       id="path17175" />
    <path
       d="m 119.20467,112.43364 c 0,-0.89073 -0.73793,-1.62856 -1.62857,-1.62856 -0.89063,0 -1.62856,0.73783 -1.62856,1.62856 v 14.79635 c 0,0.89073 0.73795,1.62857 1.62856,1.62857 0.89064,0 1.62857,-0.73784 1.62857,-1.62857 z m -3.4607,-4.27501 c 0,1.01786 0.8143,1.83216 1.83213,1.83216 1.01785,0 1.83214,-0.81381 1.83214,-1.83216 0,-1.01779 -0.81429,-1.83208 -1.83214,-1.83208 -1.01785,0 -1.83213,0.81476 -1.83213,1.83208 z"
       style="font-size:2.67967px;line-height:0;font-family:'Geometry Soft Pro';-inkscape-font-specification:'Geometry Soft Pro';letter-spacing:0px;word-spacing:0px;fill:#f2c539;fill-opacity:1;stroke-width:0.216487"
       id="path17177"
       sodipodi:nodetypes="ssssssssssss" />
    <path
       d="m 91.162961,141.79192 c 0.305392,-0.30577 0.483443,-0.7122 0.483443,-1.14503 0,-0.86509 -0.763386,-1.62857 -1.628561,-1.62857 -0.432544,0 -0.839734,0.17853 -1.145079,0.48335 -0.966963,0.96698 -2.213821,1.42498 -3.460689,1.42498 -2.697302,0 -4.885682,-2.18837 -4.885682,-4.88562 0,-2.69735 2.18838,-4.88571 4.885682,-4.88571 1.246868,0 2.519175,0.45771 3.460689,1.42497 0.305392,0.33047 0.712487,0.48335 1.145079,0.48335 0.865184,0 1.628561,-0.73784 1.628561,-1.62857 0,-0.40738 -0.178146,-0.83945 -0.483443,-1.14513 -1.603112,-1.57767 -3.664255,-2.39195 -5.750848,-2.39195 -4.503989,0 -8.142804,3.63888 -8.142804,8.14285 0,4.50397 3.638815,8.14276 8.142804,8.14276 2.086593,0 4.147736,-0.78912 5.750848,-2.39196 z"
       style="font-size:2.67967px;line-height:0;font-family:'Geometry Soft Pro';-inkscape-font-specification:'Geometry Soft Pro';letter-spacing:0px;word-spacing:0px;fill:#f2c539;fill-opacity:1;stroke-width:0.216487"
       id="path17179" />
    <path
       d="m 92.333471,137.6697 c 0,3.58788 2.926318,6.51418 6.514234,6.51418 3.587925,0 6.514245,-2.9263 6.514245,-6.51418 0,-3.58799 -2.92632,-6.51429 -6.514245,-6.51429 -3.587916,0 -6.514234,2.9263 -6.514234,6.51429 z m 3.257112,0 c 0,-1.80672 1.450434,-3.25715 3.257122,-3.25715 1.806685,0 3.257125,1.45043 3.257125,3.25715 0,1.80662 -1.45044,3.25704 -3.257125,3.25704 -1.806688,0 -3.257122,-1.45042 -3.257122,-3.25704 z"
       style="font-size:2.67967px;line-height:0;font-family:'Geometry Soft Pro';-inkscape-font-specification:'Geometry Soft Pro';letter-spacing:0px;word-spacing:0px;fill:#f2c539;fill-opacity:1;stroke-width:0.216487"
       id="path17181" />
    <path
       d="m 119.20467,137.6697 v -9.77143 c 0,-0.89073 -0.73793,-1.62857 -1.62856,-1.62857 -0.89063,0 -1.62856,0.73784 -1.62856,1.62857 v 4.14778 c -0.96695,-0.55932 -2.08659,-0.89073 -3.25712,-0.89073 -3.58792,0 -6.51423,2.9263 -6.51423,6.51428 0,3.58789 2.92631,6.51419 6.51423,6.51419 1.17053,0 2.26472,-0.30578 3.20623,-0.86509 0.3054,0.63623 0.94153,1.06878 1.67945,1.06878 1.01785,0 1.83213,-0.81476 1.83213,-1.83217 0,-0.73784 -0.43254,-1.37408 -1.06874,-1.65402 0.53434,-0.96688 0.86518,-2.06111 0.86518,-3.23159 z m -3.25712,0 c 0,1.80662 -1.45043,3.25704 -3.25712,3.25704 -1.80668,0 -3.25712,-1.45042 -3.25712,-3.25704 0,-1.80672 1.45044,-3.25715 3.25712,-3.25715 1.80669,0 3.25712,1.45043 3.25712,3.25715 z"
       style="font-size:2.67967px;line-height:0;font-family:'Geometry Soft Pro';-inkscape-font-specification:'Geometry Soft Pro';letter-spacing:0px;word-spacing:0px;fill:#f2c539;fill-opacity:1;stroke-width:0.216487"
       id="path17183" />
    <path
       d="m 128.77243,144.18388 c 0.89064,0 1.62856,-0.73784 1.62856,-1.62857 0,-0.89073 -0.73794,-1.62857 -1.62856,-1.62857 h -1.62856 c -1.22141,0 -2.26472,-0.63623 -2.82454,-1.62847 h 7.71022 c 0.89063,0 1.62856,-0.73785 1.62856,-1.62857 0,-3.58799 -2.92632,-6.51429 -6.51424,-6.51429 -3.58792,0 -6.51424,2.9263 -6.51424,6.51429 0,3.58788 2.92632,6.51418 6.51424,6.51418 z m -1.62856,-9.77133 c 1.19597,0 2.26471,0.66188 2.82453,1.62857 h -5.64907 c 0.5598,-0.96698 1.60313,-1.62857 2.82454,-1.62857 z"
       style="font-size:2.67967px;line-height:0;font-family:'Geometry Soft Pro';-inkscape-font-specification:'Geometry Soft Pro';letter-spacing:0px;word-spacing:0px;fill:#f2c539;fill-opacity:1;stroke-width:0.216487"
       id="path17185" />
    <path
       d="m 136.30448,140.92674 c -0.89063,0 -1.62856,0.73784 -1.62856,1.62857 0,0.89073 0.73794,1.62857 1.62856,1.62857 h 5.69996 c 2.23927,0 4.07141,-1.83207 4.07141,-4.07142 0,-2.23926 -1.83214,-4.07134 -4.07141,-4.07134 h -3.25711 c -0.458,0 -0.81429,-0.3561 -0.81429,-0.81381 0,-0.4577 0.35629,-0.81476 0.81429,-0.81476 h 4.88567 c 0.89063,0 1.62856,-0.73784 1.62856,-1.62857 0,-0.89072 -0.73793,-1.62857 -1.62856,-1.62857 h -4.88567 c -2.23927,0 -4.07141,1.83217 -4.07141,4.07143 0,2.23926 1.83214,4.07143 4.07141,4.07143 h 3.25711 c 0.45799,0 0.81429,0.3561 0.81429,0.81381 0,0.4577 -0.3563,0.81476 -0.81429,0.81476 z"
       style="font-size:2.67967px;line-height:0;font-family:'Geometry Soft Pro';-inkscape-font-specification:'Geometry Soft Pro';letter-spacing:0px;word-spacing:0px;fill:#f2c539;fill-opacity:1;stroke-width:0.216487"
       id="path17187" />
  </g>
</svg>
